<svg xmlns="http://www.w3.org/2000/svg" width="300" height="75" viewBox="0 0 300 75"><defs><style>.a{fill:none;}</style></defs><title>Asset 2</title><rect x="10" y="10" width="10" height="40"/><rect x="24" y="10" width="5" height="40"/><rect x="34" y="10" width="12" height="40"/><rect x="51" y="10" width="3" height="40"/><rect x="59" y="10" width="3" height="40"/><rect x="68" y="10" width="6" height="40"/><rect x="76" y="10" width="2" height="40"/><rect x="84" y="10" width="5" height="40"/><rect x="100" y="10" width="13" height="40"/><rect x="117" y="10" width="4" height="40"/><rect x="124" y="10" width="2" height="40"/><rect x="131" y="10" width="7" height="40"/><rect x="143" y="10" width="3" height="40"/><rect x="92" y="10" width="2" height="40"/><rect x="152" y="10" width="10" height="40"/><rect x="166" y="10" width="5" height="40"/><rect x="176" y="10" width="12" height="40"/><rect x="193" y="10" width="3" height="40"/><rect x="201" y="10" width="3" height="40"/><rect x="210" y="10" width="6" height="40"/><rect x="218" y="10" width="2" height="40"/><rect x="226" y="10" width="5" height="40"/><rect x="242" y="10" width="13" height="40"/><rect x="259" y="10" width="4" height="40"/><rect x="266" y="10" width="2" height="40"/><rect x="273" y="10" width="7" height="40"/><rect x="285" y="10" width="3" height="40"/><rect x="234" y="10" width="2" height="40"/><path d="M132.32,65.1a3.57,3.57,0,0,0,1.73.49c1.36,0,1.78-.86,1.76-1.51,0-1.09-1-1.56-2-1.56h-.59v-.79h.59c.77,0,1.74-.39,1.74-1.32,0-.62-.4-1.17-1.37-1.17a2.89,2.89,0,0,0-1.56.51l-.27-.76a3.69,3.69,0,0,1,2-.6c1.53,0,2.23.91,2.23,1.86a1.94,1.94,0,0,1-1.44,1.83v0a2,2,0,0,1,1.74,2c0,1.24-1,2.34-2.85,2.34a4,4,0,0,1-2-.53Z"/><path d="M142.88,59.41h-3l-.3,2a3.48,3.48,0,0,1,.63,0,3.28,3.28,0,0,1,1.68.42,2.23,2.23,0,0,1,1.12,2,2.7,2.7,0,0,1-2.9,2.67,3.81,3.81,0,0,1-1.95-.48l.27-.81a3.5,3.5,0,0,0,1.66.43A1.72,1.72,0,0,0,142,63.9c0-1-.68-1.72-2.24-1.72a7.48,7.48,0,0,0-1.08.08l.5-3.74h3.73Z"/><path d="M144.64,65.1a3.52,3.52,0,0,0,1.72.49c1.36,0,1.78-.86,1.77-1.51,0-1.09-1-1.56-2-1.56h-.59v-.79h.59c.77,0,1.74-.39,1.74-1.32,0-.62-.4-1.17-1.37-1.17a2.89,2.89,0,0,0-1.56.51l-.27-.76a3.71,3.71,0,0,1,2-.6c1.53,0,2.23.91,2.23,1.86a1.94,1.94,0,0,1-1.44,1.83v0a2,2,0,0,1,1.74,2c0,1.24-1,2.34-2.84,2.34a4,4,0,0,1-2-.53Z"/><path d="M155.6,58.52v.69l-3.39,7.1h-1.09l3.38-6.89v0h-3.82v-.87Z"/><path d="M156.7,66.31v-.64l.82-.81c2-1.89,2.89-2.9,2.91-4.08a1.39,1.39,0,0,0-1.55-1.52,2.66,2.66,0,0,0-1.66.66l-.33-.74a3.4,3.4,0,0,1,2.2-.79,2.19,2.19,0,0,1,2.39,2.26c0,1.44-1,2.6-2.69,4.19l-.62.57v0h3.5v.87Z"/><path d="M167.51,59.41h-3l-.3,2a3.52,3.52,0,0,1,.64,0,3.22,3.22,0,0,1,1.67.42,2.21,2.21,0,0,1,1.12,2,2.7,2.7,0,0,1-2.9,2.67,3.8,3.8,0,0,1-1.94-.48l.26-.81a3.51,3.51,0,0,0,1.67.43,1.71,1.71,0,0,0,1.84-1.69c0-1-.68-1.72-2.24-1.72a7.6,7.6,0,0,0-1.08.08l.51-3.74h3.73Z"/><rect class="a" width="300" height="75"/></svg>