<svg xmlns="http://www.w3.org/2000/svg" width="460" height="317.32" viewBox="0 0 460 317.32"><defs><style>.a{font-size:14px;fill:#333;}.a,.d,.f{font-family:FiraSans-Regular, Fira Sans;}.b{letter-spacing:-0.01em;}.c{letter-spacing:0em;}.d,.f{font-size:16px;}.d{fill:#ccc;}.e{letter-spacing:-0.01em;}.f{fill:#444e69;}.g{fill:#e6e6e6;}.h{fill:#31b6d3;}</style></defs><title>Calendar</title><text class="a" transform="translate(17.72 11.82)">пн</text><text class="a" transform="translate(86.9 11.82)">вт</text><text class="a" transform="translate(154.5 11.82)">ср</text><text class="a" transform="translate(222.98 11.82)">чт</text><text class="a" transform="translate(290.71 11.82)">пт</text><text class="a" transform="translate(358.67 11.82)"><tspan class="b">с</tspan><tspan x="6.55" y="0">б</tspan></text><text class="a" transform="translate(426.74 11.82)"><tspan class="c">в</tspan><tspan x="7.83" y="0">с</tspan></text><text class="d" transform="translate(17.78 69.32)">26</text><text class="d" transform="translate(86.57 69.32)"><tspan class="e">2</tspan><tspan x="7.76" y="0">7</tspan></text><text class="d" transform="translate(153.63 69.32)">28</text><text class="d" transform="translate(221.84 69.32)">29</text><text class="d" transform="translate(289.54 69.32)">30</text><text class="f" transform="translate(362.54 69.32)">1</text><text class="f" transform="translate(430.04 69.32)">2</text><text class="f" transform="translate(22.01 115.32)">3</text><text class="f" transform="translate(89.74 115.32)">4</text><text class="f" transform="translate(157.99 115.32)">5</text><text class="f" transform="translate(225.74 115.32)">6</text><text class="f" transform="translate(294.45 115.32)">7</text><text class="f" transform="translate(361.59 115.32)">8</text><text class="f" transform="translate(429.8 115.32)">9</text><text class="f" transform="translate(18.07 161.32)">10</text><text class="f" transform="translate(87.07 161.32)">11</text><text class="f" transform="translate(154.58 161.32)">12</text><text class="f" transform="translate(222.54 161.32)">13</text><text class="f" transform="translate(290.28 161.32)">14</text><text class="f" transform="translate(358.53 161.32)">15</text><text class="f" transform="translate(426.27 161.32)">16</text><text class="f" transform="translate(18.98 207.32)">17</text><text class="f" transform="translate(86.13 207.32)">18</text><text class="f" transform="translate(154.34 207.32)">19</text><text class="f" transform="translate(221.58 207.32)">20</text><text class="f" transform="translate(290.58 207.32)">21</text><text class="f" transform="translate(358.08 207.32)">22</text><text class="f" transform="translate(426.05 207.32)">23</text><text class="f" transform="translate(17.78 253.32)">24</text><text class="f" transform="translate(86.03 253.32)">25</text><text class="f" transform="translate(153.78 253.32)">26</text><text class="f" transform="translate(222.57 253.32)"><tspan class="e">2</tspan><tspan x="7.76" y="0">7</tspan></text><text class="f" transform="translate(289.63 253.32)">28</text><text class="f" transform="translate(357.84 253.32)">29</text><text class="f" transform="translate(425.54 253.32)">30</text><text class="f" transform="translate(18.54 299.32)">31</text><text class="d" transform="translate(90.54 299.32)">1</text><text class="d" transform="translate(158.04 299.32)">2</text><text class="d" transform="translate(226.01 299.32)">3</text><text class="d" transform="translate(293.74 299.32)">4</text><text class="d" transform="translate(361.99 299.32)">5</text><text class="d" transform="translate(429.74 299.32)">6</text><path class="g" d="M230.14,186a16.49,16.49,0,1,0,11.67,4.83A16.5,16.5,0,0,0,230.14,186v-2a18.49,18.49,0,1,1-13.08,5.41A18.52,18.52,0,0,1,230.14,184Z"/><path class="h" d="M230.14,186a16.5,16.5,0,1,0,6.4,31.71l.77,1.84A18.5,18.5,0,1,1,230.14,184Z"/><path class="g" d="M298.14,186a16.49,16.49,0,1,0,11.67,4.83A16.5,16.5,0,0,0,298.14,186v-2a18.49,18.49,0,1,1-13.08,5.41A18.52,18.52,0,0,1,298.14,184Z"/><path class="h" d="M298.14,186a18.08,18.08,0,0,0-4.79.71,17.68,17.68,0,0,0-4.37,2.07,18.18,18.18,0,0,0-3.59,3.25,17.87,17.87,0,0,0-2.49,4.15,18.11,18.11,0,0,0-1.18,4.7,18.72,18.72,0,0,0,.24,4.84,17.92,17.92,0,0,0,1.63,4.55,16.45,16.45,0,0,0,16.17,8.64,16.39,16.39,0,0,0,8.85-3.66,18.47,18.47,0,0,0,3.25-3.59,17.68,17.68,0,0,0,2.07-4.37,18.5,18.5,0,0,0,.71-4.79h2a20.4,20.4,0,0,1-.79,5.37,20,20,0,0,1-2.33,4.9,18.37,18.37,0,0,1-8.3,6.82,19.89,19.89,0,0,1-5.26,1.31,20.18,20.18,0,0,1-5.43-.26,19.88,19.88,0,0,1-5.11-1.83,20.62,20.62,0,0,1-4.36-3.23,20.28,20.28,0,0,1-3.23-4.36,19.81,19.81,0,0,1-1.83-5.12,20.5,20.5,0,0,1-.27-5.42,19.91,19.91,0,0,1,1.32-5.26,20.21,20.21,0,0,1,2.79-4.66,19.92,19.92,0,0,1,4-3.64,19.69,19.69,0,0,1,4.9-2.33,20.4,20.4,0,0,1,5.37-.79Z"/><path class="g" d="M26.14,232.32a16.15,16.15,0,1,0,11.42,4.73,16.21,16.21,0,0,0-11.42-4.73v-2a18.15,18.15,0,1,1-12.83,5.32,18.2,18.2,0,0,1,12.83-5.32Z"/><path class="h" d="M26.14,232.32A16.15,16.15,0,0,0,10,248.47H8a18.15,18.15,0,0,1,18.14-18.15Z"/><path class="g" d="M94.14,232a16.49,16.49,0,1,0,11.67,4.83A16.5,16.5,0,0,0,94.14,232v-2a18.49,18.49,0,1,1-13.08,5.41A18.52,18.52,0,0,1,94.14,230Z"/><path class="h" d="M94.14,232a18.08,18.08,0,0,0-4.79.71A17.68,17.68,0,0,0,85,234.75,18.18,18.18,0,0,0,81.39,238a17.87,17.87,0,0,0-2.49,4.15,18.11,18.11,0,0,0-1.18,4.7,18.72,18.72,0,0,0,.24,4.84,17.92,17.92,0,0,0,1.63,4.55,16.51,16.51,0,0,0,11.33,8.41,18.28,18.28,0,0,0,4.84.23,16.39,16.39,0,0,0,8.85-3.66,18.47,18.47,0,0,0,3.25-3.59,17.68,17.68,0,0,0,2.07-4.37,18.5,18.5,0,0,0,.71-4.79h2a20.4,20.4,0,0,1-.79,5.37,20,20,0,0,1-2.33,4.9,18.37,18.37,0,0,1-8.3,6.82A19.89,19.89,0,0,1,96,266.87a20.18,20.18,0,0,1-5.43-.26,19.88,19.88,0,0,1-5.11-1.83,20.62,20.62,0,0,1-4.36-3.23,20.28,20.28,0,0,1-3.23-4.36A19.81,19.81,0,0,1,76,252.07a20.5,20.5,0,0,1-.27-5.42,19.91,19.91,0,0,1,1.32-5.26,20.21,20.21,0,0,1,2.79-4.66,19.92,19.92,0,0,1,4-3.64,19.69,19.69,0,0,1,4.9-2.33,20.4,20.4,0,0,1,5.37-.79Z"/><path class="g" d="M162.14,232.38a16.08,16.08,0,1,0,11.38,4.71,16.14,16.14,0,0,0-11.38-4.71v-2a18.1,18.1,0,1,1-12.78,5.3,18.15,18.15,0,0,1,12.78-5.3Z"/><path class="h" d="M162.14,232.38a16.09,16.09,0,1,0,6.24,30.92l.77,1.84a18.09,18.09,0,1,1-7-34.76Z"/><path class="g" d="M230.14,232.32a16.15,16.15,0,1,0,11.42,4.73,16.21,16.21,0,0,0-11.42-4.73v-2a18.15,18.15,0,1,1-12.83,5.32,18.2,18.2,0,0,1,12.83-5.32Z"/><path class="h" d="M230.14,232.32a18.09,18.09,0,0,0-4.68.7,17.29,17.29,0,0,0-4.28,2,18.09,18.09,0,0,0-3.52,3.19,16.1,16.1,0,0,0-1.75,17.84,17.5,17.5,0,0,0,2.82,3.81A16.17,16.17,0,0,0,227,264.3a18.36,18.36,0,0,0,4.74.23,16.15,16.15,0,0,0,11.83-7.1,17.32,17.32,0,0,0,2-4.28,18.09,18.09,0,0,0,.7-4.68h2a20,20,0,0,1-.79,5.26,19.5,19.5,0,0,1-2.27,4.82,20.29,20.29,0,0,1-3.58,3.94,18,18,0,0,1-9.73,4,20.21,20.21,0,0,1-5.32-.26,19.49,19.49,0,0,1-5-1.8,18.13,18.13,0,0,1-7.45-7.44,19.4,19.4,0,0,1-1.79-5,20.12,20.12,0,0,1-.26-5.31,19.6,19.6,0,0,1,1.29-5.17,18.28,18.28,0,0,1,6.68-8.14,18.35,18.35,0,0,1,10.08-3.06Z"/><path class="g" d="M298.14,232a16.49,16.49,0,1,0,11.67,4.83A16.5,16.5,0,0,0,298.14,232v-2a18.49,18.49,0,1,1-13.08,5.41A18.52,18.52,0,0,1,298.14,230Z"/><path class="h" d="M298.14,232a16.51,16.51,0,0,0-16.5,16.5h-2a18.49,18.49,0,0,1,18.5-18.5Z"/></svg>