<svg xmlns="http://www.w3.org/2000/svg" xmlns:xlink="http://www.w3.org/1999/xlink" width="182.84" height="40" viewBox="0 0 182.84 40"><defs><style>.a{fill:#d71f26;}.b{fill:#ee2f24;}.c{fill:#ef4325;}.d{fill:#d0dee2;}.e{fill:#2c7e9b;}.f{fill:#236685;}.g,.h,.i,.j{opacity:0.7;}.g,.h,.i,.j,.l,.m,.n,.o,.p,.q,.r,.s,.t,.u,.v,.w{isolation:isolate;}.g{fill:url(#a);}.h{fill:url(#b);}.i{fill:url(#c);}.j{fill:url(#d);}.k{fill:url(#e);}.l{opacity:0.4;fill:url(#f);}.m,.p,.r,.s,.t,.u,.z{opacity:0.5;}.m{fill:url(#g);}.n,.o,.v,.w{opacity:0.3;}.n{fill:url(#h);}.o{fill:url(#i);}.p{fill:url(#j);}.q{opacity:0.6;fill:url(#k);}.r{fill:url(#l);}.s{fill:url(#m);}.t{fill:url(#n);}.u{fill:url(#o);}.v{fill:url(#p);}.w{fill:url(#q);}.x{fill:url(#r);}.y{fill:#333;}.z{mix-blend-mode:soft-light;}</style><linearGradient id="a" x1="8.55" y1="16352.42" x2="24.91" y2="16352.42" gradientTransform="matrix(1, 0, 0, -1, 0, 16384)" gradientUnits="userSpaceOnUse"><stop offset="0" stop-color="#31b6d3"/><stop offset="1" stop-color="#055faa"/></linearGradient><linearGradient id="b" x1="7.63" y1="16351.8" x2="23.7" y2="16361.08" gradientTransform="matrix(1, 0, 0, -1, 0, 16384)" gradientUnits="userSpaceOnUse"><stop offset="0" stop-color="#67c8dd"/><stop offset="1" stop-color="#2271ae"/></linearGradient><linearGradient id="c" x1="25.91" y1="16361.34" x2="34.49" y2="16358.21" gradientTransform="matrix(1, 0, 0, -1, 0, 16384)" gradientUnits="userSpaceOnUse"><stop offset="0" stop-color="#d31f26"/><stop offset="1" stop-color="#791e15"/></linearGradient><linearGradient id="d" x1="-3.02" y1="16365.72" x2="6.24" y2="16362.35" gradientTransform="matrix(1, 0, 0, -1, 0, 16384)" gradientUnits="userSpaceOnUse"><stop offset="0" stop-color="#f58020"/><stop offset="1" stop-color="#f05123"/></linearGradient><linearGradient id="e" x1="1.26" y1="16377.02" x2="11.24" y2="16373.39" xlink:href="#d"/><linearGradient id="f" x1="29.83" y1="16364.19" x2="35.86" y2="16361.99" gradientTransform="matrix(1, 0, 0, -1, 0, 16384)" gradientUnits="userSpaceOnUse"><stop offset="0" stop-color="#ee2924"/><stop offset="1" stop-color="#d83b26"/></linearGradient><linearGradient id="g" x1="4.47" y1="16367.58" x2="21.38" y2="16377.34" gradientTransform="matrix(1, 0, 0, -1, 0, 16384)" gradientUnits="userSpaceOnUse"><stop offset="0" stop-color="#fcbc7a"/><stop offset="1" stop-color="#e51e25"/></linearGradient><linearGradient id="h" x1="21.06" y1="16357.55" x2="29.99" y2="16362.71" xlink:href="#g"/><linearGradient id="i" x1="15.06" y1="16358.97" x2="31.92" y2="16368.7" gradientTransform="matrix(1, 0, 0, -1, 0, 16384)" gradientUnits="userSpaceOnUse"><stop offset="0" stop-color="#f04f41"/><stop offset="1" stop-color="#941a1d"/></linearGradient><linearGradient id="j" x1="18.84" y1="16370.97" x2="27.77" y2="16376.12" gradientTransform="matrix(1, 0, 0, -1, 0, 16384)" gradientUnits="userSpaceOnUse"><stop offset="0" stop-color="#f47d60"/><stop offset="1" stop-color="#ed1c24"/></linearGradient><linearGradient id="k" x1="2.13" y1="16358.85" x2="9.92" y2="16354.35" gradientTransform="matrix(1, 0, 0, -1, 0, 16384)" gradientUnits="userSpaceOnUse"><stop offset="0" stop-color="#f47b5a"/><stop offset="1" stop-color="#e41e26"/></linearGradient><linearGradient id="l" x1="6.01" y1="16363.57" x2="14.16" y2="16368.27" xlink:href="#j"/><linearGradient id="m" x1="7.8" y1="16360.35" x2="16.29" y2="16360.35" gradientTransform="matrix(1, 0, 0, -1, 0, 16384)" gradientUnits="userSpaceOnUse"><stop offset="0" stop-color="#f68f72"/><stop offset="1" stop-color="#ed2224"/></linearGradient><linearGradient id="n" x1="9.08" y1="16369.92" x2="32.87" y2="16369.92" xlink:href="#m"/><linearGradient id="o" x1="6.59" y1="16355.88" x2="18.58" y2="16348.96" gradientTransform="matrix(1, 0, 0, -1, 0, 16384)" gradientUnits="userSpaceOnUse"><stop offset="0" stop-color="#67c8dd"/><stop offset="1" stop-color="#4999ad"/></linearGradient><linearGradient id="p" x1="21.51" y1="16354.27" x2="25.4" y2="16352.03" xlink:href="#a"/><linearGradient id="q" x1="13.71" y1="16375.57" x2="23.43" y2="16381.18" gradientTransform="matrix(1, 0, 0, -1, 0, 16384)" gradientUnits="userSpaceOnUse"><stop offset="0" stop-color="#9cafb4"/><stop offset="1" stop-color="#c6d1d9"/></linearGradient><linearGradient id="r" x1="10.79" y1="16382.88" x2="14.68" y2="16380.63" gradientTransform="matrix(1, 0, 0, -1, 0, 16384)" gradientUnits="userSpaceOnUse"><stop offset="0" stop-color="#d1e9f0"/><stop offset="1" stop-color="#dce8f2"/></linearGradient><symbol id="s" viewBox="0 0 182.84 40"><polygon class="a" points="17 21.73 17.01 28.4 23.63 24.59 24.94 23.83 25.48 23.52 25.48 23.53 25.48 23.53 25.48 24.14 25.48 27.41 25.48 33.32 33.24 28.8 33.24 10.01 17.01 19.42 17 21.73"/><polygon class="b" points="16.29 21.73 16.29 19.42 4.31 12.46 0.03 9.98 0.03 28.79 7.8 33.32 7.8 24.16 7.8 24.14 7.8 23.55 7.8 23.53 8.33 23.83 16.28 28.4 16.29 21.73"/><polygon class="c" points="16.65 18.78 32.87 9.38 25.14 4.93 16.81 9.74 16.63 9.85 16.45 9.74 8.13 4.92 0.39 9.36 4.67 11.85 16.65 18.78"/><polygon class="d" points="16.64 8.99 24.41 4.51 16.63 0 8.84 4.49 16.64 8.99"/><polygon class="e" points="17.02 29.24 16.66 29.44 16.28 29.23 8.51 24.78 8.51 33.74 16.63 38.41 24.76 33.75 24.76 31.81 24.76 24.76 24.74 24.77 17.02 29.24"/><polygon class="f" points="17.02 29.24 16.66 29.44 16.63 38.41 24.76 33.75 24.76 31.81 24.76 24.76 24.74 24.77 17.02 29.24"/><polygon class="g" points="24.91 24.76 16.71 33.92 8.55 33.74 16.73 38.41 24.91 33.74 24.91 24.76"/><polygon class="h" points="8.51 33.74 8.52 24.78 16.66 29.44 24.76 24.76 16.63 33.92 8.51 33.74"/><polygon class="i" points="25.55 33.32 25.59 23.55 33.39 14.59 33.39 28.8 25.55 33.32"/><polygon class="j" points="8.66 15.01 0 28.78 0 9.98 8.66 15.01"/><polyline class="k" points="0.39 9.36 9.07 14.4 12.4 7.4 8.14 4.92"/><polygon class="l" points="33.39 10.03 29.81 30.89 33.39 28.8 33.39 10.03"/><polygon class="m" points="0.41 9.38 25.43 13.69 16.65 18.78 0.41 9.38"/><polygon class="n" points="17.01 19.42 25.93 14.25 33.24 28.8 25.48 23.52 17.01 19.42"/><polygon class="o" points="17.01 28.4 21.24 16.96 29.96 11.91 25.48 23.52 17.01 28.4"/><polygon class="p" points="29.7 11.22 25.14 4.93 21.24 7.18 20.78 16.39 29.7 11.22"/><polygon class="q" points="7.8 23.53 0.03 28.79 7.8 33.32 7.8 23.53"/><polygon class="r" points="16.29 19.42 0.03 9.99 7.8 23.53 16.28 28.4 16.29 19.42"/><polygon class="s" points="7.8 23.53 16.28 28.4 16.29 19.42 15.39 18.9 7.8 23.53"/><polygon class="t" points="9.07 14.4 16.65 18.78 32.87 9.38 9.07 14.4"/><polygon class="u" points="8.52 24.78 16.63 38.41 16.66 29.44 8.52 24.78"/><polygon class="v" points="24.38 24.76 20.68 35.87 24.38 33.74 24.38 24.76"/><polygon class="w" points="12.73 6.73 24.41 4.51 16.64 8.99 12.73 6.73"/><polygon class="x" points="8.84 4.49 16.63 0 12.73 6.73 8.84 4.49"/><path class="y" d="M46.8,17.83V13.26l-1.5,3h-1l-1.51-3v4.57H41.22V10h1.51l2.05,4.24,2-4.24h1.51v7.84Z"/><path class="y" d="M54.34,17.83V14.55H51.69v3.28H50.16V10h1.53v3.2h2.65V10h1.54v7.84Z"/><path class="y" d="M63.24,14.2A3.71,3.71,0,0,1,62.45,17a2.82,2.82,0,0,1-2.11.86A2.9,2.9,0,0,1,58.21,17a3.88,3.88,0,0,1-.77-2.8v-.65c0-1.56.17-2.19.77-2.81a2.9,2.9,0,0,1,2.13-.86,2.87,2.87,0,0,1,2.11.86,3.34,3.34,0,0,1,.79,2.58Zm-1.92-2.49a1.24,1.24,0,0,0-1-.42,1.26,1.26,0,0,0-1,.42C59,12.09,59,12.83,59,13.8v.4a2.84,2.84,0,0,0,.38,1.91,1.33,1.33,0,0,0,1,.42,1.26,1.26,0,0,0,1-.42c.32-.36.39-.74.39-2.34C61.71,12.48,61.63,12.05,61.32,11.71Z"/><path class="y" d="M66.37,11.35v6.48H64.83V10h4.94v1.36Z"/><path class="y" d="M76.18,14.2A3.75,3.75,0,0,1,75.4,17a2.83,2.83,0,0,1-2.11.86A2.9,2.9,0,0,1,71.16,17a3.88,3.88,0,0,1-.77-2.8v-.65c0-1.56.16-2.19.77-2.81a3,3,0,0,1,4.24,0,3.38,3.38,0,0,1,.78,2.58Zm-1.91-2.49a1.27,1.27,0,0,0-1-.42,1.3,1.3,0,0,0-1,.42,3.33,3.33,0,0,0-.37,2.09v.4a2.9,2.9,0,0,0,.37,1.91,1.37,1.37,0,0,0,1,.42,1.27,1.27,0,0,0,1-.42c.32-.36.38-.74.38-2.34C74.65,12.48,74.58,12.05,74.27,11.71Z"/><path class="y" d="M80.56,17.89V17c-2.29-.12-3.23-1.3-3.23-3.34s1.07-3.08,3.23-3.21V9.61h1.52v.79c2.17.13,3.23,1.19,3.23,3.21s-.93,3.22-3.23,3.34v.94Zm0-6.18c-1.27,0-1.72.68-1.72,2s.48,1.92,1.72,2Zm1.49,4c1.24-.07,1.72-.75,1.72-2s-.45-1.92-1.72-2Z"/><path class="y" d="M89.39,16.51a1.89,1.89,0,0,1-1.76,1.32H86.7V16.47h.61a.81.81,0,0,0,.82-.5l.23-.54L85.85,10h1.6l1.64,3.78L90.58,10h1.58Z"/><path class="y" d="M97.31,17.83V14.55H94.65v3.28H93.12V10h1.53v3.2h2.66V10h1.53v7.84Z"/><path class="y" d="M100.69,17.83V10h1.53v3.72L104.76,10h1.83L104,13.67l2.9,4.16H105l-2.76-4.1v4.1Z"/><path class="y" d="M112.88,19.58V17.83h-5.16V10h1.53v6.48h2.66V10h1.53v6.48h.92v3.11Z"/><path class="y" d="M120,17.83v-5l-3.06,5h-1.36V10h1.53v5l3.05-5h1.37v7.84Z"/><path class="y" d="M128.88,14.2A3.75,3.75,0,0,1,128.1,17a2.84,2.84,0,0,1-2.12.86,2.92,2.92,0,0,1-2.13-.86,3.88,3.88,0,0,1-.77-2.8v-.65c0-1.56.17-2.19.77-2.81a3.06,3.06,0,0,1,4.25,0,3.38,3.38,0,0,1,.78,2.58ZM127,11.71a1.24,1.24,0,0,0-1-.42,1.26,1.26,0,0,0-1,.42,3.33,3.33,0,0,0-.37,2.09v.4a2.9,2.9,0,0,0,.37,1.91,1.33,1.33,0,0,0,1,.42,1.24,1.24,0,0,0,1-.42c.32-.36.39-.74.39-2.34C127.35,12.48,127.27,12.05,127,11.71Z"/><path class="y" d="M134.63,17.83V14.55H132v3.28h-1.54V10H132v3.2h2.65V10h1.53v7.84Z"/><path class="y" d="M142.46,17.83,142,16.45H139.2l-.47,1.38h-1.6L140,10h1.2l2.86,7.84Zm-1.83-5.53-1,2.86h2Z"/><path class="y" d="M149.21,17.83V11.35h-1.87v2.29c0,3.29-.81,4.19-2.44,4.19h-.6V16.47h.22c.78,0,1.34-.47,1.34-2.92V10h4.88v7.84Z"/><path class="y" d="M155.67,17.83h-3.09V10h1.53v2.95h1.56a2.45,2.45,0,1,1,0,4.89Zm-.12-3.52h-1.44v2.16h1.44a1.08,1.08,0,1,0,0-2.16Z"/><path class="y" d="M163.69,17.83V14.55H161v3.28H159.5V10H161v3.2h2.66V10h1.53v7.84Z"/><path class="y" d="M170.14,17.83h-3.09V10h1.53v2.95h1.56a2.45,2.45,0,1,1,0,4.89ZM170,14.31h-1.43v2.16H170a1.08,1.08,0,1,0,0-2.16Zm3.52,3.52V10h1.53v7.84Z"/><path class="y" d="M181.31,17.83v-5l-3.05,5h-1.37V10h1.53v5l3.06-5h1.36v7.84Zm-1.43-8.26A1.59,1.59,0,0,1,178.09,8h1.08a.65.65,0,0,0,.71.69.65.65,0,0,0,.7-.69h1.08A1.58,1.58,0,0,1,179.88,9.57Z"/><path class="y" d="M46.8,28.85V24.28l-1.5,3h-1l-1.51-3v4.57H41.22V21h1.51l2.05,4.24,2-4.24h1.51v7.84Z"/><path class="y" d="M54.58,28.85v-5l-3.06,5H50.16V21h1.53v5l3.05-5h1.37v7.84Z"/><path class="y" d="M59.5,22.37v6.48H58V21h4.94v1.36Z"/><path class="y" d="M67.16,21a2.45,2.45,0,1,1,0,4.89H65.65v3H64.12V21Zm-.08,3.51a1.08,1.08,0,1,0,0-2.15H65.65v2.15Z"/><path class="y" d="M75,28.85l-.46-1.39H71.7l-.47,1.39h-1.6L72.48,21h1.2l2.87,7.84Zm-1.83-5.53-1,2.86h2Z"/><path class="y" d="M82.68,30.59V28.85H77.52V21h1.53v6.48h2.66V21h1.53v6.48h.91v3.1Z"/><path class="y" d="M89.78,28.85v-5l-3,5H85.36V21H86.9v5l3-5h1.36v7.84Z"/><path class="y" d="M98.68,25.22a3.76,3.76,0,0,1-.79,2.84,2.82,2.82,0,0,1-2.11.86,2.9,2.9,0,0,1-2.13-.86,3.88,3.88,0,0,1-.77-2.8v-.65c0-1.56.16-2.19.77-2.81a3,3,0,0,1,4.24,0,3.38,3.38,0,0,1,.79,2.58Zm-1.92-2.49a1.37,1.37,0,0,0-2,0c-.36.38-.38,1.12-.38,2.09v.4a2.84,2.84,0,0,0,.38,1.91,1.33,1.33,0,0,0,1,.42,1.26,1.26,0,0,0,1-.42c.32-.36.38-.74.38-2.34C97.14,23.5,97.07,23.07,96.76,22.73Z"/><path class="y" d="M104.43,28.85V25.57h-2.66v3.28h-1.53V21h1.53v3.2h2.66V21H106v7.84Z"/><path class="y" d="M112,28.85V25.57h-2.66v3.28h-1.53V21h1.53v3.2H112V21h1.53v7.84Z"/><path class="y" d="M118.42,28.85h-3.08V21h1.53V24h1.55a2.45,2.45,0,1,1,0,4.89Zm-.12-3.52h-1.43v2.16h1.43a1.08,1.08,0,1,0,0-2.16Zm3.52,3.52V21h1.53v7.84Z"/><path class="y" d="M129.6,28.85v-5l-3.06,5h-1.36V21h1.53v5l3-5h1.37v7.84Zm-1.44-8.26A1.58,1.58,0,0,1,126.38,19h1.08a.71.71,0,0,0,1.41,0H130A1.59,1.59,0,0,1,128.16,20.59Z"/><path class="y" d="M142.43,30.59V28.85h-5.15V21h1.53v6.48h2.65V21H143v6.48h.91v3.1Z"/><path class="y" d="M145.12,28.85V21h5.17v1.36h-3.64v1.84h3.1v1.37h-3.1v1.91h3.64v1.36Z"/><path class="y" d="M156,28.85V25.57h-2.66v3.28h-1.53V21h1.53v3.2H156V21h1.53v7.84Z"/><path class="y" d="M162.33,22.37v6.48H160.8V22.37h-2.05V21h5.63v1.36Z"/><path class="y" d="M168.67,21a2.45,2.45,0,1,1,0,4.89h-1.51v3h-1.53V21Zm-.08,3.51a1.08,1.08,0,1,0,0-2.15h-1.43v2.15Z"/><g class="z"><path class="y" d="M44.69,34h-2.3v4.92H41.22V33h3.47v1Z"/><path class="y" d="M44.76,36a3.62,3.62,0,0,1,.65-2.3,2.31,2.31,0,0,1,1.88-.8,2.6,2.6,0,0,1,1.12.22,2.13,2.13,0,0,1,.79.63,2.71,2.71,0,0,1,.47,1A5,5,0,0,1,49.82,36a3.56,3.56,0,0,1-.66,2.3,2.29,2.29,0,0,1-1.87.8,2.57,2.57,0,0,1-1.12-.22,2,2,0,0,1-.79-.63,2.71,2.71,0,0,1-.47-1A5,5,0,0,1,44.76,36ZM46,36a4.28,4.28,0,0,0,.07.83,2,2,0,0,0,.24.65,1.11,1.11,0,0,0,.4.43,1.13,1.13,0,0,0,.59.15,1.1,1.1,0,0,0,1-.48A2.81,2.81,0,0,0,48.59,36a4.14,4.14,0,0,0-.07-.81,2.44,2.44,0,0,0-.22-.66,1.28,1.28,0,0,0-.4-.43,1.09,1.09,0,0,0-.61-.16,1.08,1.08,0,0,0-1,.5A2.78,2.78,0,0,0,46,36Z"/><path class="y" d="M50.66,33a7.93,7.93,0,0,1,.79-.11,8.06,8.06,0,0,1,.85,0,6.54,6.54,0,0,1,.89.07,2.37,2.37,0,0,1,.81.29,1.7,1.7,0,0,1,.58.61,2,2,0,0,1,.23,1,2.09,2.09,0,0,1-.2,1,1.81,1.81,0,0,1-.52.64,2.06,2.06,0,0,1-.73.35,3.12,3.12,0,0,1-.86.11H52l-.14,0v2H50.66V33Zm1.74.86h-.33l-.25,0v1.94h.51a2.28,2.28,0,0,0,.45,0,1.13,1.13,0,0,0,.41-.16.8.8,0,0,0,.28-.32,1.2,1.2,0,0,0,.11-.54.9.9,0,0,0-.1-.46,1,1,0,0,0-.27-.3,1.16,1.16,0,0,0-.38-.15A2.09,2.09,0,0,0,52.4,33.89Z"/><path class="y" d="M55.25,36a3.56,3.56,0,0,1,.66-2.3,2.29,2.29,0,0,1,1.87-.8,2.6,2.6,0,0,1,1.12.22,2.13,2.13,0,0,1,.79.63,2.71,2.71,0,0,1,.47,1A4.55,4.55,0,0,1,60.32,36a3.56,3.56,0,0,1-.66,2.3,2.31,2.31,0,0,1-1.88.8,2.6,2.6,0,0,1-1.12-.22,2.13,2.13,0,0,1-.79-.63,2.69,2.69,0,0,1-.46-1A4.55,4.55,0,0,1,55.25,36Zm1.23,0a4.25,4.25,0,0,0,.08.83,2.26,2.26,0,0,0,.23.65,1.13,1.13,0,0,0,.41.43,1.09,1.09,0,0,0,.58.15,1.12,1.12,0,0,0,1-.48A2.89,2.89,0,0,0,59.09,36a5.09,5.09,0,0,0-.07-.81,2.44,2.44,0,0,0-.23-.66,1.19,1.19,0,0,0-.4-.43,1.2,1.2,0,0,0-1.57.34A2.78,2.78,0,0,0,56.48,36Z"/><path class="y" d="M66.22,40H65.4l-.13-1.07H61.43L61.3,40h-.82V37.89h.63a3.59,3.59,0,0,0,.19-.41,4.9,4.9,0,0,0,.28-.92,12.28,12.28,0,0,0,.23-1.48A19,19,0,0,0,61.89,33h3.57v4.92h.76V40ZM64.3,37.89V34H63a16.18,16.18,0,0,1-.25,2.48,6.44,6.44,0,0,1-.39,1.4Z"/><path class="y" d="M69.82,37.61H68l-.45,1.32H66.37l2.15-6h.86l2.15,6H70.3Zm-1.53-.93h1.28l-.45-1.33-.18-.94h0l-.18.94Z"/><path class="y" d="M78.45,35.84l.13-1.19h-.06l-.36,1-1.27,2.22h-.38L75.17,35.6l-.37-.94h0l.17,1.17v3.1H73.82V33h1.06l1.6,2.73.28.68h0l.26-.7L78.56,33h1.06v6H78.45V35.84Z"/><path class="y" d="M80.45,36a3.56,3.56,0,0,1,.66-2.3,2.29,2.29,0,0,1,1.87-.8,2.6,2.6,0,0,1,1.12.22,2.13,2.13,0,0,1,.79.63,2.71,2.71,0,0,1,.47,1A5,5,0,0,1,85.51,36a3.56,3.56,0,0,1-.66,2.3,2.29,2.29,0,0,1-1.87.8,2.6,2.6,0,0,1-1.12-.22,2.13,2.13,0,0,1-.79-.63,2.88,2.88,0,0,1-.47-1A5,5,0,0,1,80.45,36Zm1.23,0a3.6,3.6,0,0,0,.08.83,2.26,2.26,0,0,0,.23.65,1.13,1.13,0,0,0,.41.43A1.09,1.09,0,0,0,83,38a1.12,1.12,0,0,0,1-.48A2.89,2.89,0,0,0,84.29,36a5.09,5.09,0,0,0-.07-.81,2.44,2.44,0,0,0-.23-.66,1.19,1.19,0,0,0-.4-.43,1.2,1.2,0,0,0-1.57.34A2.78,2.78,0,0,0,81.68,36Z"/><path class="y" d="M90.39,38.69a1.82,1.82,0,0,1-.69.28,5,5,0,0,1-.87.08,3.11,3.11,0,0,1-1-.16,2.2,2.2,0,0,1-.85-.54,2.83,2.83,0,0,1-.58-1A4.36,4.36,0,0,1,86.16,36a3.76,3.76,0,0,1,.25-1.47,2.63,2.63,0,0,1,.63-.95A2.14,2.14,0,0,1,87.9,33a2.93,2.93,0,0,1,1-.16,4.2,4.2,0,0,1,.86.07,3.08,3.08,0,0,1,.59.16l-.23,1a1.62,1.62,0,0,0-.47-.14,4.11,4.11,0,0,0-.65,0,1.45,1.45,0,0,0-1.14.5A2.37,2.37,0,0,0,87.39,36a3.22,3.22,0,0,0,.1.84,1.87,1.87,0,0,0,.31.65,1.51,1.51,0,0,0,.52.42A1.66,1.66,0,0,0,89,38a2.35,2.35,0,0,0,.65-.08,1.77,1.77,0,0,0,.46-.2Z"/><path class="y" d="M92.59,36.39h-.31v2.54H91.12V33h1.16v2.64l.28-.12L94.2,33h1.33l-1.74,2.5-.46.33.48.33,2,2.8H94.36Z"/><path class="y" d="M100.42,34.36a1.72,1.72,0,0,1-.06.44,1.32,1.32,0,0,1-.18.4,1.29,1.29,0,0,1-.33.33,1.75,1.75,0,0,1-.5.21v0a2.75,2.75,0,0,1,.49.14,1.41,1.41,0,0,1,.4.29,1.32,1.32,0,0,1,.27.43,1.8,1.8,0,0,1,.09.6,1.5,1.5,0,0,1-.72,1.35,2.48,2.48,0,0,1-.74.32,3.55,3.55,0,0,1-.86.1h-.86l-.53,0a3.34,3.34,0,0,1-.49-.08V33l.37,0,.45,0c.16,0,.32,0,.49,0h.5A4.28,4.28,0,0,1,99,33a2.19,2.19,0,0,1,.71.22,1.36,1.36,0,0,1,.5.45A1.4,1.4,0,0,1,100.42,34.36ZM97.9,35.47h.28l.26,0a1.77,1.77,0,0,0,.56-.3.71.71,0,0,0,.23-.54.8.8,0,0,0-.08-.36.84.84,0,0,0-.23-.23,1,1,0,0,0-.32-.11,1.5,1.5,0,0,0-.37,0h-.41a1.6,1.6,0,0,0-.29,0v1.57ZM98.29,38a1.92,1.92,0,0,0,.41,0,1.25,1.25,0,0,0,.35-.16.88.88,0,0,0,.25-.26.79.79,0,0,0,.09-.38.72.72,0,0,0-.11-.44A.71.71,0,0,0,99,36.5a1,1,0,0,0-.4-.11,3.25,3.25,0,0,0-.44,0h-.62V38l.13,0,.2,0h.43Z"/><path class="y" d="M101.44,33h1.17v2.14l.3,0,.4,0a4.28,4.28,0,0,1,.81.08,1.76,1.76,0,0,1,.68.31,1.54,1.54,0,0,1,.46.59,2.24,2.24,0,0,1,.17.93,1.9,1.9,0,0,1-.61,1.55A2.67,2.67,0,0,1,103,39h-.3l-.41,0-.44,0a2.58,2.58,0,0,1-.43-.07V33Zm1.67,5a1.3,1.3,0,0,0,.79-.23.88.88,0,0,0,.3-.75,1.19,1.19,0,0,0-.08-.46.81.81,0,0,0-.23-.28.78.78,0,0,0-.35-.14,1.87,1.87,0,0,0-.42,0l-.28,0a.72.72,0,0,0-.23,0v1.78l.22,0ZM106,33h1.17v6H106Z"/></g></symbol></defs><title>Logo</title><use width="182.84" height="40" xlink:href="#s"/></svg>