<svg xmlns="http://www.w3.org/2000/svg" width="50" height="1500" viewBox="0 0 50 1500"><defs><style>.a{fill:#31b6d3;}.b{fill:#eee;}.c{fill:none;}</style></defs><title>Asset 3</title><path class="a" d="M30.92,754.83a.33.33,0,0,1,.08.22.46.46,0,0,1-.08.25l-.63.6A.36.36,0,0,1,30,756a.28.28,0,0,1-.22-.11l-3.33-3.31a.33.33,0,0,1-.08-.22V752a5.69,5.69,0,0,1-1.73,1,5.37,5.37,0,0,1-2,.37,5.54,5.54,0,0,1-2.86-.76,5.68,5.68,0,0,1-2.06-2.07,5.68,5.68,0,0,1,0-5.71,5.68,5.68,0,0,1,2.06-2.07,5.54,5.54,0,0,1,2.86-.76,5.48,5.48,0,0,1,2.85.76,5.71,5.71,0,0,1,2.07,2.07,5.52,5.52,0,0,1,.77,2.86,5.62,5.62,0,0,1-.37,2,5.87,5.87,0,0,1-1,1.72h.38a.27.27,0,0,1,.22.09Zm-8.23-2.76a4.33,4.33,0,0,0,2.19-.59,4.28,4.28,0,0,0,1.59-1.6,4.34,4.34,0,0,0,0-4.37,4.28,4.28,0,0,0-1.59-1.6,4.33,4.33,0,0,0-2.19-.59,4.38,4.38,0,0,0,0,8.75Z"/><path class="b" d="M25,1500H24V778.14a13.63,13.63,0,0,1,7.89-12.27,17.51,17.51,0,0,0,0-31.74A13.62,13.62,0,0,1,24,721.86V0h1V721.86a12.63,12.63,0,0,0,7.32,11.37,18.51,18.51,0,0,1,0,33.54A12.63,12.63,0,0,0,25,778.14Z"/><rect class="c" width="50" height="1500"/></svg>