<svg xmlns="http://www.w3.org/2000/svg" width="100" height="1500" viewBox="0 0 100 1500"><defs><style>.a{fill:#d6d8de;opacity:0.3;}.b{fill:#fff;}.c{fill:#eee;}.d{fill:none;}</style></defs><title>Asset 2</title><path class="a" d="M81.5,1500h-8V778.14a17.14,17.14,0,0,1,9.91-15.44,14,14,0,0,0,0-25.4,17.14,17.14,0,0,1-9.91-15.44V0h8V721.86a9.14,9.14,0,0,0,5.29,8.2,22,22,0,0,1,0,39.89,9.11,9.11,0,0,0-5.29,8.19Z"/><path class="b" d="M77.5,1500V778.14a13.06,13.06,0,0,1,7.6-11.82,18,18,0,0,0,0-32.64,13.06,13.06,0,0,1-7.6-11.82V0H0V1499.5Z"/><path class="c" d="M78,1500H77V778.14a13.62,13.62,0,0,1,7.89-12.27,17.51,17.51,0,0,0,0-31.74A13.62,13.62,0,0,1,77,721.86V0h1V721.86a12.63,12.63,0,0,0,7.32,11.37,18.51,18.51,0,0,1,0,33.54A12.63,12.63,0,0,0,78,778.14Z"/><rect class="d" width="100" height="1500"/></svg>