<svg xmlns="http://www.w3.org/2000/svg" width="20" height="20" viewBox="0 0 20 20"><defs><style>.a{fill:none;}.b{fill:#31b6d3;}</style></defs><title>Comments</title><rect class="a" width="20" height="20"/><path class="b" d="M15.25,3a1.68,1.68,0,0,1,1.23.52A1.68,1.68,0,0,1,17,4.75v7.87a1.69,1.69,0,0,1-.52,1.24,1.72,1.72,0,0,1-1.23.52H11.31L7.89,17a.39.39,0,0,1-.2.05.28.28,0,0,1-.22-.1.32.32,0,0,1-.09-.23V14.38H4.75a1.72,1.72,0,0,1-1.23-.52A1.69,1.69,0,0,1,3,12.62V4.75a1.68,1.68,0,0,1,.52-1.23A1.68,1.68,0,0,1,4.75,3Zm.44,9.62V4.75a.44.44,0,0,0-.44-.44H4.75a.44.44,0,0,0-.44.44v7.87a.41.41,0,0,0,.13.32.41.41,0,0,0,.31.12H8.69V14.7l2.19-1.64h4.37a.41.41,0,0,0,.31-.12A.41.41,0,0,0,15.69,12.62ZM12.11,6.55l.62.66a.26.26,0,0,1,.09.19.23.23,0,0,1-.09.19l-3.22,3.2a.33.33,0,0,1-.19.06.3.3,0,0,1-.2-.08L7.27,8.91a.27.27,0,0,1-.09-.2.26.26,0,0,1,.09-.19l.62-.63a.32.32,0,0,1,.21-.08.28.28,0,0,1,.2.08l1,1,2.4-2.38a.29.29,0,0,1,.19-.08A.3.3,0,0,1,12.11,6.55Z"/></svg>