<svg xmlns="http://www.w3.org/2000/svg" width="20" height="20" viewBox="0 0 20 20"><defs><style>.a{fill:none;}.b{fill:#f66;}</style></defs><title>Delete</title><rect class="a" width="20" height="20"/><path class="b" d="M17,4.75A1.74,1.74,0,0,1,18.75,6.5v7A1.74,1.74,0,0,1,17,15.25H6.86a1.69,1.69,0,0,1-1.24-.52L1.5,10.63a.92.92,0,0,1,0-1.26l4.12-4.1a1.69,1.69,0,0,1,1.24-.52Zm-2.32,7L13,10l1.7-1.7a.43.43,0,0,0,0-.62l-.61-.61a.43.43,0,0,0-.62,0l-1.7,1.7-1.7-1.7a.43.43,0,0,0-.62,0l-.61.61a.43.43,0,0,0,0,.62l1.7,1.7-1.7,1.7a.43.43,0,0,0,0,.62l.61.61a.43.43,0,0,0,.62,0l1.7-1.7,1.7,1.7a.43.43,0,0,0,.62,0l.61-.61a.43.43,0,0,0,0-.62Z"/></svg>