<svg xmlns="http://www.w3.org/2000/svg" width="20" height="20" viewBox="0 0 20 20"><defs><style>.a{fill:none;}.b{fill:#9ca1b0;}</style></defs><title>Print</title><rect class="a" width="20" height="20"/><path class="b" d="M14.81,8.25A2.19,2.19,0,0,1,17,10.44v2.62a.41.41,0,0,1-.44.44H14.38v3.06a.46.46,0,0,1-.13.32.41.41,0,0,1-.31.12H6.06a.43.43,0,0,1-.31-.12.46.46,0,0,1-.13-.32V13.5H3.44A.41.41,0,0,1,3,13.06V10.44A2.19,2.19,0,0,1,5.19,8.25h.43V3.88a.89.89,0,0,1,.25-.62A.8.8,0,0,1,6.45,3h4.94a.82.82,0,0,1,.61.25l2.13,2.13a.82.82,0,0,1,.25.6V8.25Zm1.31,4.37V10.44a1.31,1.31,0,0,0-1.31-1.32H5.19a1.24,1.24,0,0,0-.93.39,1.23,1.23,0,0,0-.38.93v2.18ZM6.5,3.88V8.25h7V6.5H11.75a.87.87,0,0,1-.62-.26.84.84,0,0,1-.25-.62V3.88Zm7,12.24V13.5h-7v2.62ZM11.75,4.23V5.62h1.39Zm2.19,6a.6.6,0,0,1,.46.19.63.63,0,0,1,.19.47.62.62,0,0,1-.19.46.6.6,0,0,1-.46.19.64.64,0,0,1-.47-.19.66.66,0,0,1,0-.93A.64.64,0,0,1,13.94,10.22Z"/></svg>