<svg xmlns="http://www.w3.org/2000/svg" width="20" height="20" viewBox="0 0 20 20"><defs><style>.a{fill:none;}.b{fill:#31b6d3;}</style></defs><title>Profile</title><rect class="a" width="20" height="20"/><path class="b" d="M12.46,11.31a3.66,3.66,0,0,1,3.17,1.83A3.6,3.6,0,0,1,16.12,15v.71A1.3,1.3,0,0,1,14.81,17H5.19a1.3,1.3,0,0,1-1.31-1.31V15a3.6,3.6,0,0,1,.49-1.84,3.66,3.66,0,0,1,3.17-1.83,3.32,3.32,0,0,1,.93.19c.25.08.46.13.63.17a5.1,5.1,0,0,0,1.8,0c.17,0,.38-.09.63-.17A3.32,3.32,0,0,1,12.46,11.31Zm2.35,4.38V15a2.37,2.37,0,0,0-2.35-2.36,2.56,2.56,0,0,0-.55.11,5.94,5.94,0,0,1-1.9.33,6.15,6.15,0,0,1-1.92-.33,3.11,3.11,0,0,0-.55-.11A2.37,2.37,0,0,0,5.19,15v.71ZM10,10.88a3.77,3.77,0,0,1-2-.54A3.92,3.92,0,0,1,6.6,8.91,3.86,3.86,0,0,1,6.6,5,4,4,0,0,1,8,3.53a3.93,3.93,0,0,1,3.94,0A4,4,0,0,1,13.4,5a3.86,3.86,0,0,1,0,3.94A3.92,3.92,0,0,1,12,10.34,3.77,3.77,0,0,1,10,10.88Zm0-6.57A2.61,2.61,0,0,0,7.38,6.94,2.6,2.6,0,0,0,10,9.56a2.6,2.6,0,0,0,2.62-2.62A2.61,2.61,0,0,0,10,4.31Z"/></svg>