<svg xmlns="http://www.w3.org/2000/svg" xmlns:xlink="http://www.w3.org/1999/xlink" width="40" height="40" viewBox="0 0 40 40"><defs><style>.a{fill:#d71f26;}.b{fill:#ee2f24;}.c{fill:#ef4325;}.d{fill:#d0dee2;}.e{fill:#2c7e9b;}.f{fill:#236685;}.g,.h,.i,.j{opacity:0.7;}.g,.h,.i,.j,.l,.m,.n,.o,.p,.q,.r,.s,.t,.u,.v,.w{isolation:isolate;}.g{fill:url(#a);}.h{fill:url(#b);}.i{fill:url(#c);}.j{fill:url(#d);}.k{fill:url(#e);}.l{opacity:0.4;fill:url(#f);}.m,.p,.r,.s,.t,.u{opacity:0.5;}.m{fill:url(#g);}.n,.o,.v,.w{opacity:0.3;}.n{fill:url(#h);}.o{fill:url(#i);}.p{fill:url(#j);}.q{opacity:0.6;fill:url(#k);}.r{fill:url(#l);}.s{fill:url(#m);}.t{fill:url(#n);}.u{fill:url(#o);}.v{fill:url(#p);}.w{fill:url(#q);}.x{fill:url(#r);}.y{fill:none;}</style><linearGradient id="a" x1="11.55" y1="9.42" x2="27.91" y2="9.42" gradientTransform="matrix(1, 0, 0, -1, 0, 42)" gradientUnits="userSpaceOnUse"><stop offset="0" stop-color="#31b6d3"/><stop offset="1" stop-color="#055faa"/></linearGradient><linearGradient id="b" x1="10.63" y1="8.8" x2="26.7" y2="18.08" gradientTransform="matrix(1, 0, 0, -1, 0, 42)" gradientUnits="userSpaceOnUse"><stop offset="0" stop-color="#67c8dd"/><stop offset="1" stop-color="#2271ae"/></linearGradient><linearGradient id="c" x1="28.91" y1="18.34" x2="37.49" y2="15.21" gradientTransform="matrix(1, 0, 0, -1, 0, 42)" gradientUnits="userSpaceOnUse"><stop offset="0" stop-color="#d31f26"/><stop offset="1" stop-color="#791e15"/></linearGradient><linearGradient id="d" x1="-0.02" y1="22.72" x2="9.24" y2="19.35" gradientTransform="matrix(1, 0, 0, -1, 0, 42)" gradientUnits="userSpaceOnUse"><stop offset="0" stop-color="#f58020"/><stop offset="1" stop-color="#f05123"/></linearGradient><linearGradient id="e" x1="4.26" y1="34.02" x2="14.24" y2="30.39" xlink:href="#d"/><linearGradient id="f" x1="32.83" y1="21.19" x2="38.86" y2="18.99" gradientTransform="matrix(1, 0, 0, -1, 0, 42)" gradientUnits="userSpaceOnUse"><stop offset="0" stop-color="#ee2924"/><stop offset="1" stop-color="#d83b26"/></linearGradient><linearGradient id="g" x1="7.47" y1="24.58" x2="24.38" y2="34.34" gradientTransform="matrix(1, 0, 0, -1, 0, 42)" gradientUnits="userSpaceOnUse"><stop offset="0" stop-color="#fcbc7a"/><stop offset="1" stop-color="#e51e25"/></linearGradient><linearGradient id="h" x1="24.06" y1="14.55" x2="32.99" y2="19.71" xlink:href="#g"/><linearGradient id="i" x1="18.06" y1="15.97" x2="34.92" y2="25.7" gradientTransform="matrix(1, 0, 0, -1, 0, 42)" gradientUnits="userSpaceOnUse"><stop offset="0" stop-color="#f04f41"/><stop offset="1" stop-color="#941a1d"/></linearGradient><linearGradient id="j" x1="21.84" y1="27.97" x2="30.77" y2="33.12" gradientTransform="matrix(1, 0, 0, -1, 0, 42)" gradientUnits="userSpaceOnUse"><stop offset="0" stop-color="#f47d60"/><stop offset="1" stop-color="#ed1c24"/></linearGradient><linearGradient id="k" x1="5.13" y1="15.85" x2="12.92" y2="11.35" gradientTransform="matrix(1, 0, 0, -1, 0, 42)" gradientUnits="userSpaceOnUse"><stop offset="0" stop-color="#f47b5a"/><stop offset="1" stop-color="#e41e26"/></linearGradient><linearGradient id="l" x1="9.01" y1="20.57" x2="17.16" y2="25.27" xlink:href="#j"/><linearGradient id="m" x1="10.8" y1="17.35" x2="19.29" y2="17.35" gradientTransform="matrix(1, 0, 0, -1, 0, 42)" gradientUnits="userSpaceOnUse"><stop offset="0" stop-color="#f68f72"/><stop offset="1" stop-color="#ed2224"/></linearGradient><linearGradient id="n" x1="12.08" y1="26.92" x2="35.87" y2="26.92" xlink:href="#m"/><linearGradient id="o" x1="9.59" y1="12.88" x2="21.58" y2="5.96" gradientTransform="matrix(1, 0, 0, -1, 0, 42)" gradientUnits="userSpaceOnUse"><stop offset="0" stop-color="#67c8dd"/><stop offset="1" stop-color="#4999ad"/></linearGradient><linearGradient id="p" x1="24.51" y1="11.27" x2="28.4" y2="9.03" xlink:href="#a"/><linearGradient id="q" x1="16.71" y1="32.57" x2="26.43" y2="38.18" gradientTransform="matrix(1, 0, 0, -1, 0, 42)" gradientUnits="userSpaceOnUse"><stop offset="0" stop-color="#9cafb4"/><stop offset="1" stop-color="#c6d1d9"/></linearGradient><linearGradient id="r" x1="13.79" y1="39.88" x2="17.68" y2="37.63" gradientTransform="matrix(1, 0, 0, -1, 0, 42)" gradientUnits="userSpaceOnUse"><stop offset="0" stop-color="#d1e9f0"/><stop offset="1" stop-color="#dce8f2"/></linearGradient></defs><title>Logo_Sign</title><polygon class="a" points="20 22.73 20.01 29.4 26.63 25.59 27.94 24.83 28.48 24.52 28.48 24.53 28.48 24.53 28.48 25.14 28.48 28.41 28.48 34.32 36.24 29.8 36.24 11.01 20.01 20.42 20 22.73"/><polygon class="b" points="19.29 22.73 19.29 20.42 7.31 13.46 3.03 10.98 3.03 29.79 10.8 34.32 10.8 25.16 10.8 25.14 10.8 24.55 10.8 24.53 11.33 24.83 19.28 29.4 19.29 22.73"/><polygon class="c" points="19.65 19.78 35.87 10.38 28.14 5.93 19.81 10.74 19.63 10.85 19.45 10.74 11.13 5.92 3.39 10.36 7.67 12.85 19.65 19.78"/><polygon class="d" points="19.64 9.99 27.41 5.51 19.63 1 11.84 5.49 19.64 9.99"/><polygon class="e" points="20.02 30.24 19.66 30.44 19.28 30.23 11.51 25.78 11.51 34.74 19.63 39.41 27.76 34.75 27.76 32.81 27.76 25.76 27.74 25.77 20.02 30.24"/><polygon class="f" points="20.02 30.24 19.66 30.44 19.63 39.41 27.76 34.75 27.76 32.81 27.76 25.76 27.74 25.77 20.02 30.24"/><polygon class="g" points="27.91 25.76 19.71 34.92 11.55 34.74 19.73 39.41 27.91 34.74 27.91 25.76"/><polygon class="h" points="11.51 34.74 11.52 25.78 19.66 30.44 27.76 25.76 19.63 34.92 11.51 34.74"/><polygon class="i" points="28.55 34.32 28.59 24.55 36.39 15.59 36.39 29.8 28.55 34.32"/><polygon class="j" points="11.66 16.01 3 29.78 3 10.98 11.66 16.01"/><polyline class="k" points="3.39 10.36 12.07 15.4 15.4 8.4 11.14 5.92"/><polygon class="l" points="36.39 11.03 32.81 31.89 36.39 29.8 36.39 11.03"/><polygon class="m" points="3.4 10.38 28.43 14.69 19.65 19.78 3.4 10.38"/><polygon class="n" points="20.01 20.42 28.93 15.25 36.24 29.8 28.48 24.52 20.01 20.42"/><polygon class="o" points="20.01 29.4 24.24 17.96 32.96 12.91 28.48 24.52 20.01 29.4"/><polygon class="p" points="32.7 12.22 28.14 5.93 24.24 8.18 23.78 17.39 32.7 12.22"/><polygon class="q" points="10.8 24.53 3.03 29.79 10.8 34.32 10.8 24.53"/><polygon class="r" points="19.29 20.42 3.03 10.99 10.8 24.53 19.28 29.4 19.29 20.42"/><polygon class="s" points="10.8 24.53 19.28 29.4 19.29 20.42 18.39 19.9 10.8 24.53"/><polygon class="t" points="12.07 15.4 19.65 19.78 35.87 10.38 12.07 15.4"/><polygon class="u" points="11.52 25.78 19.63 39.41 19.66 30.44 11.52 25.78"/><polygon class="v" points="27.38 25.76 23.68 36.87 27.38 34.74 27.38 25.76"/><polygon class="w" points="15.73 7.73 27.41 5.51 19.64 9.99 15.73 7.73"/><polygon class="x" points="11.84 5.49 19.63 1 15.73 7.73 11.84 5.49"/><rect class="y" width="40" height="40"/></svg>