<svg xmlns="http://www.w3.org/2000/svg" xmlns:xlink="http://www.w3.org/1999/xlink" width="24" height="24" viewBox="0 0 24 24"><defs><style>.a{fill:#31b6d3;}.b{mix-blend-mode:soft-light;}.c{fill:url(#a);}</style><linearGradient id="a" x1="12" y1="24" x2="12" gradientUnits="userSpaceOnUse"><stop offset="0" stop-color="#fff" stop-opacity="0"/><stop offset="1"/></linearGradient><symbol id="b" viewBox="0 0 24 24"><path class="a" d="M12,0a11.64,11.64,0,0,1,6,1.62A12.1,12.1,0,0,1,22.38,6,11.64,11.64,0,0,1,24,12a11.64,11.64,0,0,1-1.62,6A12.1,12.1,0,0,1,18,22.38,11.64,11.64,0,0,1,12,24a11.64,11.64,0,0,1-6-1.62A12.1,12.1,0,0,1,1.62,18,11.64,11.64,0,0,1,0,12,11.64,11.64,0,0,1,1.62,6,12.1,12.1,0,0,1,6,1.62,11.64,11.64,0,0,1,12,0Zm0,21.29A9.3,9.3,0,0,0,19.11,18a5.7,5.7,0,0,0-2-2.1,5.09,5.09,0,0,0-2.81-.8,1.16,1.16,0,0,0-.34.05,6.11,6.11,0,0,1-4,0,1.16,1.16,0,0,0-.34-.05,5.09,5.09,0,0,0-2.81.8,5.7,5.7,0,0,0-2,2.1A9.3,9.3,0,0,0,12,21.29ZM12,4.65A4.09,4.09,0,0,0,9,5.9a4.2,4.2,0,0,0,0,6,4.2,4.2,0,0,0,6,0,4.2,4.2,0,0,0,0-6A4.09,4.09,0,0,0,12,4.65Z"/><g class="b"><path class="c" d="M12,0a11.64,11.64,0,0,1,6,1.62A12.1,12.1,0,0,1,22.38,6,11.64,11.64,0,0,1,24,12a11.64,11.64,0,0,1-1.62,6A12.1,12.1,0,0,1,18,22.38,11.64,11.64,0,0,1,12,24a11.64,11.64,0,0,1-6-1.62A12.1,12.1,0,0,1,1.62,18,11.64,11.64,0,0,1,0,12,11.64,11.64,0,0,1,1.62,6,12.1,12.1,0,0,1,6,1.62,11.64,11.64,0,0,1,12,0Zm0,21.29A9.3,9.3,0,0,0,19.11,18a5.7,5.7,0,0,0-2-2.1,5.09,5.09,0,0,0-2.81-.8,1.16,1.16,0,0,0-.34.05,6.11,6.11,0,0,1-4,0,1.16,1.16,0,0,0-.34-.05,5.09,5.09,0,0,0-2.81.8,5.7,5.7,0,0,0-2,2.1A9.3,9.3,0,0,0,12,21.29ZM12,4.65A4.09,4.09,0,0,0,9,5.9a4.2,4.2,0,0,0,0,6,4.2,4.2,0,0,0,6,0,4.2,4.2,0,0,0,0-6A4.09,4.09,0,0,0,12,4.65Z"/></g></symbol></defs><title>Profile</title><use width="24" height="24" xlink:href="#b"/></svg>