<svg xmlns="http://www.w3.org/2000/svg" width="20" height="20" viewBox="0 0 20 20"><defs><style>.a{fill:#31b6d3;}.b{fill:none;}</style></defs><title>Add</title><path class="a" d="M16.19,2.12a1.62,1.62,0,0,1,1.19.5,1.62,1.62,0,0,1,.5,1.19V16.19a1.71,1.71,0,0,1-1.69,1.69H3.81a1.62,1.62,0,0,1-1.19-.5,1.62,1.62,0,0,1-.5-1.19V3.81a1.62,1.62,0,0,1,.5-1.19,1.62,1.62,0,0,1,1.19-.5Zm0,1.13H3.81a.55.55,0,0,0-.56.56V16.19a.55.55,0,0,0,.56.56H16.19a.55.55,0,0,0,.56-.56V3.81a.55.55,0,0,0-.56-.56ZM14.08,9.37a.42.42,0,0,1,.3.12.41.41,0,0,1,.12.3v.42a.41.41,0,0,1-.12.3.42.42,0,0,1-.3.12H10.63v3.45a.42.42,0,0,1-.12.3.41.41,0,0,1-.3.12H9.79a.41.41,0,0,1-.3-.12.42.42,0,0,1-.12-.3V10.63H5.92a.42.42,0,0,1-.3-.12.41.41,0,0,1-.12-.3V9.79a.41.41,0,0,1,.12-.3.42.42,0,0,1,.3-.12H9.37V5.92a.42.42,0,0,1,.12-.3.41.41,0,0,1,.3-.12h.42a.41.41,0,0,1,.3.12.42.42,0,0,1,.12.3V9.37Z"/><rect class="b" width="20" height="20"/></svg>