<svg xmlns="http://www.w3.org/2000/svg" width="20" height="20" viewBox="0 0 20 20"><defs><style>.a{fill:none;}.b{fill:#31b6d3;}</style></defs><title>Calendar</title><rect class="a" width="20" height="20"/><path class="b" d="M14.81,4.75a1.3,1.3,0,0,1,1.31,1.31v9.63A1.3,1.3,0,0,1,14.81,17H5.19a1.3,1.3,0,0,1-1.31-1.31V6.06A1.3,1.3,0,0,1,5.19,4.75H6.5V3.33A.34.34,0,0,1,6.83,3H7.92a.34.34,0,0,1,.33.33V4.75h3.5V3.33A.34.34,0,0,1,12.08,3h1.09a.34.34,0,0,1,.33.33V4.75Zm-.16,10.94a.15.15,0,0,0,.11-.06.16.16,0,0,0,.05-.11V7.38H5.19v8.14a.16.16,0,0,0,0,.11.17.17,0,0,0,.11.06Z"/></svg>