<svg xmlns="http://www.w3.org/2000/svg" width="20" height="20" viewBox="0 0 20 20"><defs><style>.a{fill:none;}.b{fill:#f66;}</style></defs><title>Cancel</title><rect class="a" width="20" height="20"/><path class="b" d="M10,3.22a6.58,6.58,0,0,1,3.39.91,7,7,0,0,1,2.48,2.48A6.58,6.58,0,0,1,16.78,10a6.58,6.58,0,0,1-.91,3.39,7,7,0,0,1-2.48,2.48,6.58,6.58,0,0,1-3.39.91,6.58,6.58,0,0,1-3.39-.91,7,7,0,0,1-2.48-2.48A6.58,6.58,0,0,1,3.22,10a6.58,6.58,0,0,1,.91-3.39A7,7,0,0,1,6.61,4.13,6.58,6.58,0,0,1,10,3.22ZM6.14,13.86A5.41,5.41,0,0,0,8.4,15.24a5.51,5.51,0,0,0,2.61.15,5.15,5.15,0,0,0,2.35-1.1L5.71,6.64A5.15,5.15,0,0,0,4.61,9a5.51,5.51,0,0,0,.15,2.61A5.35,5.35,0,0,0,6.14,13.86Zm7.72-7.72A5.35,5.35,0,0,0,11.6,4.76,5.51,5.51,0,0,0,9,4.61a5.15,5.15,0,0,0-2.35,1.1l7.65,7.65A5.15,5.15,0,0,0,15.39,11a5.51,5.51,0,0,0-.15-2.61A5.35,5.35,0,0,0,13.86,6.14Z"/></svg>