<svg xmlns="http://www.w3.org/2000/svg" width="20" height="20" viewBox="0 0 20 20"><defs><style>.a{fill:#31b6d3;}.b{fill:none;}</style></defs><title>Cause</title><path class="a" d="M3.44,11.15a2.29,2.29,0,0,0,.74,1.18,6,6,0,0,0,1.4,1,6.87,6.87,0,0,0,1.58.59A7.77,7.77,0,0,0,8,15.23l-.3,0a5.67,5.67,0,0,1-2.19-.52,7.77,7.77,0,0,1-2.18-1.36,3.51,3.51,0,0,1-1.21-2L1.28,6.48a1.8,1.8,0,0,1,.13-1.13,1.77,1.77,0,0,1,.74-.79A12.25,12.25,0,0,1,8.17,3a12,12,0,0,1,2,.17,1.69,1.69,0,0,1,1.15.74A11.4,11.4,0,0,0,9.73,4a3.19,3.19,0,0,0-.85.3c-.29,0-.53,0-.71,0A10.77,10.77,0,0,0,2.81,5.71a.41.41,0,0,0-.21.2.59.59,0,0,0,0,.32ZM6.53,7.3a1.09,1.09,0,0,1-.88,1.25,1.05,1.05,0,0,1-.82-.17,1,1,0,0,1-.44-.7c0-.11,0-.23,0-.36a1.68,1.68,0,0,0,1.09.15,1.55,1.55,0,0,0,1-.5A1.42,1.42,0,0,1,6.53,7.3Zm.38,2.37-.22,1.21a3.18,3.18,0,0,0-1.37.85,2,2,0,0,1,.41-1.26A2.28,2.28,0,0,1,6.91,9.67ZM17.85,6.28a1.79,1.79,0,0,1,.74.8,1.77,1.77,0,0,1,.13,1.12l-.87,4.92a3.64,3.64,0,0,1-1.37,2.11,7.21,7.21,0,0,1-2.38,1.39,4.57,4.57,0,0,1-2.25.34,4.44,4.44,0,0,1-2-1.08,7.33,7.33,0,0,1-1.78-2.13,3.77,3.77,0,0,1-.55-2.46l.88-4.92a1.91,1.91,0,0,1,.5-1,1.88,1.88,0,0,1,1-.52,12.27,12.27,0,0,1,4.1,0A12.82,12.82,0,0,1,17.85,6.28Zm-1.29,6.59L17.44,8a.55.55,0,0,0,0-.31.43.43,0,0,0-.21-.21,11,11,0,0,0-7.14-1.26.49.49,0,0,0-.24.14.54.54,0,0,0-.14.27L8.8,11.51a2.71,2.71,0,0,0,.49,1.75,6.59,6.59,0,0,0,1.37,1.6,3.36,3.36,0,0,0,1.4.82,3.48,3.48,0,0,0,1.62-.3,6.81,6.81,0,0,0,1.84-1A2.62,2.62,0,0,0,16.56,12.87Zm-3.91-.54a5,5,0,0,0,1.68,0,3.52,3.52,0,0,0,1.38-.48,2.67,2.67,0,0,1-1.24,1.67,2.87,2.87,0,0,1-2.1.39,2.91,2.91,0,0,1-1.84-1.09,2.7,2.7,0,0,1-.58-2,3.91,3.91,0,0,0,1.13.94A4.43,4.43,0,0,0,12.65,12.33Zm-1.2-3.2a1.67,1.67,0,0,0-1.09.13,1.57,1.57,0,0,1,0-.32,1,1,0,0,1,.44-.7,1.11,1.11,0,0,1,.82-.19,1,1,0,0,1,.7.45,1.09,1.09,0,0,1,.18.82,1.6,1.6,0,0,1-.11.3A1.7,1.7,0,0,0,11.45,9.13Zm3.64-.47a1.09,1.09,0,0,1,.69.45,1,1,0,0,1,.18.81,1.07,1.07,0,0,1-.11.33,1.59,1.59,0,0,0-1-.52,1.57,1.57,0,0,0-1.06.14.91.91,0,0,1,0-.33.93.93,0,0,1,.44-.7A1.08,1.08,0,0,1,15.09,8.66Z"/><rect class="b" width="20" height="20"/></svg>