<svg xmlns="http://www.w3.org/2000/svg" width="20" height="20" viewBox="0 0 20 20"><defs><style>.a{fill:#f66;}.b{fill:none;}</style></defs><title>close</title><path class="a" d="M11.31,10,14.24,13a.39.39,0,0,1,.14.3.36.36,0,0,1-.14.3l-.69.69a.36.36,0,0,1-.3.14.39.39,0,0,1-.3-.14L10,11.31,7.05,14.24a.39.39,0,0,1-.3.14.36.36,0,0,1-.3-.14l-.69-.69a.36.36,0,0,1-.14-.3.39.39,0,0,1,.14-.3L8.69,10,5.76,7.05a.39.39,0,0,1-.14-.3.36.36,0,0,1,.14-.3l.69-.69a.36.36,0,0,1,.3-.14.39.39,0,0,1,.3.14l3,2.93L13,5.76a.39.39,0,0,1,.3-.14.36.36,0,0,1,.3.14l.69.69a.36.36,0,0,1,.14.3.39.39,0,0,1-.14.3Z"/><rect class="b" width="20" height="20"/></svg>