<svg xmlns="http://www.w3.org/2000/svg" width="20" height="20" viewBox="0 0 20 20"><defs><style>.a{fill:none;}.b{fill:#31b6d3;}</style></defs><title>Docs</title><rect class="a" width="20" height="20"/><path class="b" d="M5.24,6.55a1.24,1.24,0,0,1-.93.39A1.31,1.31,0,0,1,3,5.62,1.31,1.31,0,0,1,4.31,4.31a1.24,1.24,0,0,1,.93.39,1.22,1.22,0,0,1,.38.92A1.23,1.23,0,0,1,5.24,6.55ZM3.38,9.07a1.31,1.31,0,0,0,.93,2.24,1.31,1.31,0,1,0,0-2.62A1.3,1.3,0,0,0,3.38,9.07Zm0,4.38a1.32,1.32,0,0,0,.93,2.24,1.24,1.24,0,0,0,.93-.39,1.32,1.32,0,0,0,0-1.85,1.24,1.24,0,0,0-.93-.39A1.27,1.27,0,0,0,3.38,13.45ZM17,5.19a.34.34,0,0,0-.33-.33H6.83a.34.34,0,0,0-.33.33v.87a.34.34,0,0,0,.33.33h9.84A.34.34,0,0,0,17,6.06Zm0,4.37a.29.29,0,0,0-.1-.23.33.33,0,0,0-.23-.1H6.83a.33.33,0,0,0-.23.1.29.29,0,0,0-.1.23v.88a.29.29,0,0,0,.1.23.33.33,0,0,0,.23.1h9.84a.33.33,0,0,0,.23-.1.29.29,0,0,0,.1-.23Zm0,4.38a.34.34,0,0,0-.33-.33H6.83a.34.34,0,0,0-.33.33v.87a.34.34,0,0,0,.33.33h9.84a.34.34,0,0,0,.33-.33Z"/></svg>