<svg xmlns="http://www.w3.org/2000/svg" width="20" height="20" viewBox="0 0 20 20"><defs><style>.a{fill:#31b6d3;}.b{fill:none;}</style></defs><title>Edit</title><path class="a" d="M16.45,5A1.78,1.78,0,0,1,17,6.34a1.8,1.8,0,0,1-.55,1.32L7.84,16.32,3.77,17a.67.67,0,0,1-.58-.19A.64.64,0,0,1,3,16.24l.68-4.07,8.67-8.62A1.81,1.81,0,0,1,13.66,3,1.83,1.83,0,0,1,15,3.55ZM5.24,15.53l2-.33.49-.49V13.56H6.45V12.25H5.3l-.5.49-.32,2Zm3.23-4a.66.66,0,0,1-.17-.44.67.67,0,0,1,.17-.44l3.25-3.25L11,6.64,6.31,11.27H7.43v1.31H8.74V13.7l4.62-4.65-.76-.76L9.34,11.54a.62.62,0,0,1-.43.16A.65.65,0,0,1,8.47,11.54Zm7.14-4.73a.67.67,0,0,0,.19-.47.61.61,0,0,0-.22-.46L14.13,4.4a.63.63,0,0,0-.47-.19.62.62,0,0,0-.46.19L11.89,5.71l2.4,2.41Z"/><rect class="b" width="20" height="20"/></svg>