<svg xmlns="http://www.w3.org/2000/svg" width="20" height="20" viewBox="0 0 20 20"><defs><style>.a{fill:#8f7b8a;}.b{fill:none;}</style></defs><title>form_datepicker</title><path class="a" d="M16.19,3.25a1.61,1.61,0,0,1,1.19.49,1.64,1.64,0,0,1,.5,1.2V17.31a1.64,1.64,0,0,1-.5,1.2,1.61,1.61,0,0,1-1.19.49H3.81a1.61,1.61,0,0,1-1.19-.49,1.64,1.64,0,0,1-.5-1.2V4.94a1.64,1.64,0,0,1,.5-1.2,1.61,1.61,0,0,1,1.19-.49H5.5V1.42A.41.41,0,0,1,5.92,1H6.2a.41.41,0,0,1,.3.12.42.42,0,0,1,.12.3V3.25h6.76V1.42a.42.42,0,0,1,.12-.3A.41.41,0,0,1,13.8,1h.28a.41.41,0,0,1,.42.42V3.25ZM3.81,4.38a.55.55,0,0,0-.4.15.54.54,0,0,0-.16.41V6.62h13.5V4.94a.54.54,0,0,0-.16-.41.55.55,0,0,0-.4-.15Zm12.38,13.5a.56.56,0,0,0,.4-.16.54.54,0,0,0,.16-.41V7.75H3.25v9.56a.54.54,0,0,0,.16.41.56.56,0,0,0,.4.16ZM7.33,12.25a.41.41,0,0,0,.42-.42V10.42A.41.41,0,0,0,7.33,10H5.92a.41.41,0,0,0-.42.42v1.41a.41.41,0,0,0,.42.42Zm0,3.37a.42.42,0,0,0,.3-.12.41.41,0,0,0,.12-.3V13.8a.41.41,0,0,0-.12-.3.42.42,0,0,0-.3-.12H5.92a.42.42,0,0,0-.3.12.41.41,0,0,0-.12.3v1.4a.41.41,0,0,0,.12.3.42.42,0,0,0,.3.12Zm3.37-3.37a.41.41,0,0,0,.3-.12.42.42,0,0,0,.12-.3V10.42a.42.42,0,0,0-.12-.3.41.41,0,0,0-.3-.12H9.3a.41.41,0,0,0-.3.12.42.42,0,0,0-.12.3v1.41a.42.42,0,0,0,.12.3.41.41,0,0,0,.3.12Zm0,3.37a.41.41,0,0,0,.42-.42V13.8a.41.41,0,0,0-.42-.42H9.3a.41.41,0,0,0-.42.42v1.4a.41.41,0,0,0,.42.42Zm3.38-3.37a.41.41,0,0,0,.42-.42V10.42a.41.41,0,0,0-.42-.42H12.67a.41.41,0,0,0-.42.42v1.41a.41.41,0,0,0,.42.42Zm0,3.37a.42.42,0,0,0,.3-.12.41.41,0,0,0,.12-.3V13.8a.41.41,0,0,0-.12-.3.42.42,0,0,0-.3-.12H12.67a.42.42,0,0,0-.3.12.41.41,0,0,0-.12.3v1.4a.41.41,0,0,0,.12.3.42.42,0,0,0,.3.12Z"/><rect class="b" width="20" height="20"/></svg>