<svg xmlns="http://www.w3.org/2000/svg" width="20" height="20" viewBox="0 0 20 20"><defs><style>.a{fill:#8f7b8a;}.b{fill:none;}</style></defs><title>form_search</title><path class="a" d="M17.91,16.66a.33.33,0,0,1,.09.25.49.49,0,0,1-.09.28l-.72.69a.41.41,0,0,1-.28.12.29.29,0,0,1-.25-.12l-3.82-3.79a.4.4,0,0,1-.09-.25v-.43a6.63,6.63,0,0,1-2,1.17,6.47,6.47,0,0,1-5.55-.46,6.61,6.61,0,0,1-2.35-2.35A6.26,6.26,0,0,1,2,8.5a6.26,6.26,0,0,1,.88-3.27A6.61,6.61,0,0,1,5.23,2.88,6.26,6.26,0,0,1,8.5,2a6.26,6.26,0,0,1,3.27.88,6.61,6.61,0,0,1,2.35,2.35,6.47,6.47,0,0,1,.46,5.55,6.63,6.63,0,0,1-1.17,2h.43a.33.33,0,0,1,.25.09ZM8.5,13.5a4.86,4.86,0,0,0,2.5-.67A5,5,0,0,0,12.83,11a5,5,0,0,0,0-5A5,5,0,0,0,11,4.17a5,5,0,0,0-5,0A5,5,0,0,0,4.17,6a5,5,0,0,0,0,5A5,5,0,0,0,6,12.83,4.86,4.86,0,0,0,8.5,13.5Z"/><rect class="b" width="20" height="20"/></svg>