<svg xmlns="http://www.w3.org/2000/svg" width="20" height="20" viewBox="0 0 20 20"><defs><style>.a{fill:none;}.b{fill:#31b6d3;}</style></defs><title>History</title><rect class="a" width="20" height="20"/><path class="b" d="M15.78,13.39a6.91,6.91,0,0,1-2.47,2.48,6.79,6.79,0,0,1-5.85.45A6.62,6.62,0,0,1,5.38,15a.27.27,0,0,1-.11-.23.32.32,0,0,1,.08-.23l.47-.47A.33.33,0,0,1,6.05,14a.4.4,0,0,1,.23.08A5.62,5.62,0,0,0,8,15.1a5.23,5.23,0,0,0,2,.37,5.33,5.33,0,0,0,2.73-.74,5.48,5.48,0,0,0,2-2,5.41,5.41,0,0,0,0-5.46,5.48,5.48,0,0,0-2-2,5.33,5.33,0,0,0-2.73-.74A5.22,5.22,0,0,0,7.8,5,5.4,5.4,0,0,0,6,6.14L7.38,7.46a.34.34,0,0,1,.08.37.31.31,0,0,1-.3.2H3.63a.32.32,0,0,1-.23-.09.33.33,0,0,1-.1-.24V4.23a.29.29,0,0,1,.21-.3A.33.33,0,0,1,3.88,4l1.23,1.2A6.91,6.91,0,0,1,7.28,3.75a6.73,6.73,0,0,1,2.64-.53,6.58,6.58,0,0,1,3.39.91A7,7,0,0,1,15.78,6.6a6.72,6.72,0,0,1,0,6.79Zm-3.26-1.48a.29.29,0,0,0,.05-.24.24.24,0,0,0-.14-.19l-1.86-1.37V6.17a.32.32,0,0,0-.09-.23.33.33,0,0,0-.23-.1H9.59a.33.33,0,0,0-.23.1.29.29,0,0,0-.1.23v4.6l2.41,1.75a.34.34,0,0,0,.24.06.27.27,0,0,0,.22-.12Z"/></svg>