<svg xmlns="http://www.w3.org/2000/svg" width="20" height="20" viewBox="0 0 20 20"><defs><style>.a{fill:none;}.b{fill:#f66;}</style></defs><title>Hot</title><rect class="a" width="20" height="20"/><path class="b" d="M10,3a22.1,22.1,0,0,1,3.77,4.32,7.63,7.63,0,0,1,1.48,3.91,6.41,6.41,0,0,1-.67,3A5,5,0,0,1,10,17a5,5,0,0,1-4.58-2.79,6.41,6.41,0,0,1-.67-3A7.63,7.63,0,0,1,6.23,7.32,20.84,20.84,0,0,1,10,3Zm0,12.69a3.61,3.61,0,0,0,2.86-1.23,4.72,4.72,0,0,0,1.08-3.23,5.93,5.93,0,0,0-1.08-2.9A19.88,19.88,0,0,0,10,4.8,17.65,17.65,0,0,0,7,8.55a5.73,5.73,0,0,0-1,2.68,4.72,4.72,0,0,0,1.08,3.23A3.63,3.63,0,0,0,10,15.69Zm1.23-6.13a5.66,5.66,0,0,1,1,1A2.48,2.48,0,0,1,12.62,12a2.22,2.22,0,0,1-.76,1.69,2.61,2.61,0,0,1-1.86.72,2.61,2.61,0,0,1-1.86-.72A2.2,2.2,0,0,1,7.38,12a2.17,2.17,0,0,1,.71-1.65.13.13,0,0,1,.17,0,.14.14,0,0,1,.1.15v.82a1.07,1.07,0,0,0,.34.8,1.11,1.11,0,0,0,.81.35,1.2,1.2,0,0,0,1.15-1.15,1.29,1.29,0,0,0-.22-.71A3.57,3.57,0,0,0,10,10a2.44,2.44,0,0,1-.47-.5,1,1,0,0,1-.14-.66,2.85,2.85,0,0,1,.5-1,.16.16,0,0,1,.2-.06q.12,0,.12.12a1.47,1.47,0,0,0,.33.9A5.81,5.81,0,0,0,11.23,9.56Z"/></svg>