<svg xmlns="http://www.w3.org/2000/svg" width="20" height="20" viewBox="0 0 20 20"><defs><style>.a{fill:none;}.b{fill:#31b6d3;}</style></defs><title>Info</title><rect class="a" width="20" height="20"/><path class="b" d="M8.47,14.59V10.66H7.92a.53.53,0,0,1-.38-.17.52.52,0,0,1-.16-.38V8.8a.53.53,0,0,1,.16-.39.52.52,0,0,1,.38-.16H11a.55.55,0,0,1,.55.55v5.79h.55a.53.53,0,0,1,.38.17.52.52,0,0,1,.16.38v1.31a.53.53,0,0,1-.16.39.52.52,0,0,1-.38.16H7.92a.52.52,0,0,1-.38-.16.53.53,0,0,1-.16-.39V15.14a.52.52,0,0,1,.16-.38.53.53,0,0,1,.38-.17Zm.14-11A1.89,1.89,0,0,0,8,5a1.86,1.86,0,0,0,.58,1.39,2,2,0,0,0,2.78,0A1.86,1.86,0,0,0,12,5a2,2,0,0,0-2-2A1.89,1.89,0,0,0,8.61,3.57Z"/></svg>