<svg xmlns="http://www.w3.org/2000/svg" width="20" height="20" viewBox="0 0 20 20"><defs><style>.a{fill:#31b6d3;}.b{fill:none;}</style></defs><title>Results</title><path class="a" d="M5.49,10.38a4.37,4.37,0,0,0-1,1,.8.8,0,0,0-.33-.08H3.55a1,1,0,0,0-1,1,.65.65,0,0,1-.65.65.63.63,0,0,1-.47-.19.62.62,0,0,1-.19-.46,2.21,2.21,0,0,1,.67-1.63A2.21,2.21,0,0,1,3.55,10H4.2A2.3,2.3,0,0,1,5.49,10.38ZM3.88,9.12a2.1,2.1,0,0,1-1.55-.64,2.09,2.09,0,0,1-.64-1.54A2.19,2.19,0,0,1,3.88,4.75a2.09,2.09,0,0,1,1.54.64,2.11,2.11,0,0,1,.64,1.55,2.09,2.09,0,0,1-.64,1.54A2.09,2.09,0,0,1,3.88,9.12Zm0-3.06a.85.85,0,0,0-.62.26A.87.87,0,0,0,3,6.94a.85.85,0,0,0,.26.61.86.86,0,0,0,1.23,0,.85.85,0,0,0,.26-.61.87.87,0,0,0-.26-.62A.85.85,0,0,0,3.88,6.06ZM14.7,11.83a3,3,0,0,1,.55,1.75v1.23a1.3,1.3,0,0,1-1.31,1.31H6.06a1.3,1.3,0,0,1-1.31-1.31V13.58a3,3,0,0,1,.55-1.76A2.81,2.81,0,0,1,6.81,10.7a3.2,3.2,0,0,1,2,0,4,4,0,0,0,1.22.2,4.17,4.17,0,0,0,1.24-.2,3.2,3.2,0,0,1,2,0A2.83,2.83,0,0,1,14.7,11.83Zm-.76,3V13.58a1.79,1.79,0,0,0-.52-1.27,1.84,1.84,0,0,0-1.26-.56,5.52,5.52,0,0,1-4.32,0,1.84,1.84,0,0,0-1.26.56,1.79,1.79,0,0,0-.52,1.27v1.23ZM10,10A3.06,3.06,0,0,1,7.35,8.47a3.06,3.06,0,0,1,0-3.06A3.06,3.06,0,0,1,10,3.88a2.93,2.93,0,0,1,1.53.41,2.87,2.87,0,0,1,1.12,1.12,3.06,3.06,0,0,1,0,3.06,2.94,2.94,0,0,1-1.12,1.12A3,3,0,0,1,10,10Zm0-4.81a1.68,1.68,0,0,0-1.23.52,1.65,1.65,0,0,0-.52,1.23,1.68,1.68,0,0,0,.52,1.23,1.71,1.71,0,0,0,2.46,0,1.68,1.68,0,0,0,.52-1.23,1.65,1.65,0,0,0-.52-1.23A1.68,1.68,0,0,0,10,5.19Zm6.12,3.93a2.19,2.19,0,0,1-2.18-2.18,2.11,2.11,0,0,1,.64-1.55,2.18,2.18,0,0,1,3.09,0,2.11,2.11,0,0,1,.64,1.55,2.19,2.19,0,0,1-2.19,2.18Zm.33.88a2.29,2.29,0,0,1,2.3,2.3.62.62,0,0,1-.19.46.63.63,0,0,1-.47.19.65.65,0,0,1-.65-.65,1,1,0,0,0-1-1H15.8a1.16,1.16,0,0,0-.33.06,4.49,4.49,0,0,0-1-1A2.3,2.3,0,0,1,15.8,10Zm-.33-3.94a.85.85,0,0,0-.61.26.87.87,0,0,0-.26.62.85.85,0,0,0,.26.61.86.86,0,0,0,1.23,0A.85.85,0,0,0,17,6.94a.87.87,0,0,0-.26-.62A.85.85,0,0,0,16.12,6.06Z"/><rect class="b" width="20" height="20"/></svg>