<svg xmlns="http://www.w3.org/2000/svg" width="20" height="20" viewBox="0 0 20 20"><defs><style>.a{fill:none;}.b{fill:#31b6d3;}</style></defs><title>Profile</title><rect class="a" width="20" height="20"/><path class="b" d="M7.76,11.67a3,3,0,0,0,.76.76l.28.14-.39.88a1.4,1.4,0,0,1-.54.68,1.59,1.59,0,0,1-.85.25H5a.65.65,0,0,1-.47-.2.64.64,0,0,1-.19-.46A.65.65,0,0,1,5,13.06H7a.19.19,0,0,0,.19-.13ZM15,9.59a.64.64,0,0,1,.47.19.66.66,0,0,1,0,.93.64.64,0,0,1-.47.19l-1.31,0a1.5,1.5,0,0,1-.92-.31,1.63,1.63,0,0,1-.56-.76l-.38-1.26a1.66,1.66,0,0,0-.16-.33l-1.15,2.85,1.42.87a1.54,1.54,0,0,1,.63.75,1.47,1.47,0,0,1,.05,1l-.93,2.88a.59.59,0,0,1-.23.32.65.65,0,0,1-.4.14.45.45,0,0,1-.16,0,.68.68,0,0,1-.41-.31.65.65,0,0,1-.06-.51l.91-2.84a.2.2,0,0,0-.08-.25L9,11.67a1.38,1.38,0,0,1-.67-.81,1.5,1.5,0,0,1,0-1.08l1-2.38-.41-.08A1.1,1.1,0,0,0,8,7.51l-1.31,1a.56.56,0,0,1-.49.15.62.62,0,0,1-.44-.26.58.58,0,0,1-.12-.47.81.81,0,0,1,.23-.46l1.34-1A2.28,2.28,0,0,1,8.15,6,2.11,2.11,0,0,1,9.21,6l2.13.49a2.37,2.37,0,0,1,1.78,1.64l.38,1.26a.21.21,0,0,0,.22.13Zm-3.28-4a1.3,1.3,0,0,1-1.31-1.31,1.32,1.32,0,0,1,2.24-.93,1.26,1.26,0,0,1,.38.93,1.23,1.23,0,0,1-.38.93A1.26,1.26,0,0,1,11.75,5.62Z"/></svg>