<svg xmlns="http://www.w3.org/2000/svg" width="20" height="20" viewBox="0 0 20 20"><defs><style>.a{fill:#31b6d3;}.b{fill:none;}</style></defs><title>Search</title><path class="a" d="M16.92,15.82A.33.33,0,0,1,17,16a.44.44,0,0,1-.08.25l-.63.6A.36.36,0,0,1,16,17a.28.28,0,0,1-.22-.11l-3.33-3.31a.32.32,0,0,1-.08-.22V13a5.92,5.92,0,0,1-1.73,1,5.63,5.63,0,0,1-4.85-.4,5.68,5.68,0,0,1-2.06-2.07A5.49,5.49,0,0,1,3,8.69a5.55,5.55,0,0,1,.77-2.86A5.65,5.65,0,0,1,5.83,3.77,5.45,5.45,0,0,1,8.69,3a5.39,5.39,0,0,1,2.85.77,5.68,5.68,0,0,1,2.07,2.06,5.63,5.63,0,0,1,.4,4.85,5.92,5.92,0,0,1-1,1.73h.38a.27.27,0,0,1,.22.08ZM8.69,13.06a4.24,4.24,0,0,0,2.19-.59,4.33,4.33,0,0,0,1.59-1.59,4.24,4.24,0,0,0,.59-2.19,4.19,4.19,0,0,0-.59-2.19A4.36,4.36,0,0,0,8.69,4.31,4.28,4.28,0,0,0,6.5,4.9,4.38,4.38,0,0,0,4.9,6.5a4.28,4.28,0,0,0-.59,2.19A4.36,4.36,0,0,0,6.5,12.47,4.19,4.19,0,0,0,8.69,13.06Z"/><rect class="b" width="20" height="20"/></svg>