<svg xmlns="http://www.w3.org/2000/svg" width="20" height="20" viewBox="0 0 20 20"><defs><style>.a{fill:none;}.b{fill:#f66;}</style></defs><title>Services</title><rect class="a" width="20" height="20"/><path class="b" d="M7,13.39a.28.28,0,0,1-.22.11.38.38,0,0,1-.25-.11l-.19-.19A.28.28,0,0,1,6.21,13a.38.38,0,0,1,.11-.25L9.11,10,6.32,7.27A.46.46,0,0,1,6.24,7a.33.33,0,0,1,.08-.22l.19-.22a.46.46,0,0,1,.25-.08A.33.33,0,0,1,7,6.58l3.23,3.17a.43.43,0,0,1,0,.5v0Zm3.5-6.81a.33.33,0,0,0-.22-.08.46.46,0,0,0-.25.08l-.19.22A.28.28,0,0,0,9.71,7a.38.38,0,0,0,.11.25L12.61,10,9.82,12.73a.46.46,0,0,0-.08.25.33.33,0,0,0,.08.22l.19.19a.38.38,0,0,0,.25.11.28.28,0,0,0,.22-.11l3.23-3.17a.33.33,0,0,0,.08-.22.46.46,0,0,0-.08-.25Z"/></svg>