<svg xmlns="http://www.w3.org/2000/svg" width="20" height="20" viewBox="0 0 20 20"><defs><style>.a{fill:none;}.b{fill:#f66;}</style></defs><title>Unlock</title><rect class="a" width="20" height="20"/><path class="b" d="M15.06,10a1.67,1.67,0,0,1,1.69,1.69v5.62A1.67,1.67,0,0,1,15.06,19H4.94a1.67,1.67,0,0,1-1.69-1.69V11.69A1.67,1.67,0,0,1,4.94,10H5.5V6.62a6.53,6.53,0,0,1,1.09-4A4,4,0,0,1,10,1a3.84,3.84,0,0,1,3.39,1.69,6.62,6.62,0,0,1,1.09,4v.67a.41.41,0,0,1-.42.42H13.8a.41.41,0,0,1-.3-.12.42.42,0,0,1-.12-.3V6.62a5.51,5.51,0,0,0-.78-3.16A2.86,2.86,0,0,0,10,2.12,2.86,2.86,0,0,0,7.4,3.46a5.51,5.51,0,0,0-.78,3.16V10Zm.56,7.31V11.69a.58.58,0,0,0-.15-.41.58.58,0,0,0-.41-.16H4.94a.58.58,0,0,0-.41.16.58.58,0,0,0-.15.41v5.62a.58.58,0,0,0,.15.41.58.58,0,0,0,.41.16H15.06a.58.58,0,0,0,.41-.16A.58.58,0,0,0,15.62,17.31ZM10,16.19a.56.56,0,0,0,.4-.16.54.54,0,0,0,.16-.41V13.38A.54.54,0,0,0,10.4,13a.58.58,0,0,0-.8,0,.54.54,0,0,0-.16.41v2.24A.54.54,0,0,0,9.6,16,.56.56,0,0,0,10,16.19Z"/></svg>