<svg xmlns="http://www.w3.org/2000/svg" width="20" height="20" viewBox="0 0 20 20"><defs><style>.a{fill:none;}.b{fill:#f66;}</style></defs><title>Warning</title><rect class="a" width="20" height="20"/><path class="b" d="M17.85,15.92a1.34,1.34,0,0,1-.44.77,1.24,1.24,0,0,1-.85.31H3.44a1.24,1.24,0,0,1-.85-.31,1.34,1.34,0,0,1-.44-.77A1.41,1.41,0,0,1,2.29,15L8.85,3.66a1.26,1.26,0,0,1,.7-.59,1.39,1.39,0,0,1,.9,0,1.26,1.26,0,0,1,.7.59L17.71,15A1.41,1.41,0,0,1,17.85,15.92ZM9.11,13.05a1.26,1.26,0,0,0,0,1.78,1.26,1.26,0,0,0,1.78,0,1.26,1.26,0,1,0-1.78-1.78ZM9,11.89a.32.32,0,0,0,.09.21.33.33,0,0,0,.23.09h1.32a.32.32,0,0,0,.23-.09.32.32,0,0,0,.09-.21l.22-3.72a.37.37,0,0,0-.09-.26.34.34,0,0,0-.24-.09H9.12a.33.33,0,0,0-.23.09.37.37,0,0,0-.09.26Z"/></svg>